<svg width="924" height="558" xmlns="http://www.w3.org/2000/svg" xmlns:xlink="http://www.w3.org/1999/xlink" overflow="hidden"><defs><clipPath id="clip0"><rect x="286" y="818" width="924" height="558"/></clipPath></defs><g clip-path="url(#clip0)" transform="translate(-286 -818)"><text fill="#262626" font-family="Fredoka One,Fredoka One_MSFontService,sans-serif" font-weight="400" font-size="265" transform="translate(497.135 1154)">COR</text><path d="M287 1058.5C287 1002.44 332.443 957 388.5 957 444.557 957 490 1002.44 490 1058.5 490 1114.56 444.557 1160 388.5 1160 332.443 1160 287 1114.56 287 1058.5Z" fill="#262626" fill-rule="evenodd"/><path d="M309 1058.5C309 1014.59 344.593 979 388.5 979 432.407 979 468 1014.59 468 1058.5 468 1102.41 432.407 1138 388.5 1138 344.593 1138 309 1102.41 309 1058.5Z" fill="#6200EE" fill-rule="evenodd"/><path d="M365.502 1058.23C370.974 1058.16 376.614 1058.71 382.461 1060.04 394.149 1087.57 376.656 1122.96 365.062 1153.96L364.006 1157.05 358.208 1155.56C326.465 1145.69 301.411 1120.62 291.538 1088.87L291.343 1088.11 305.427 1079.9C324.417 1068.83 343.615 1058.52 365.502 1058.23Z" fill="#262626" fill-rule="evenodd"/><path d="M394.055 957.595 398.719 957.831C429.39 960.947 456.019 977.74 472.414 1002.02L476.681 1009.88 467.954 1017.87C447.683 1036.42 426.842 1053.87 396.868 1053.58 379.618 1029.15 389.224 990.856 393.996 958.107L394.055 957.595Z" fill="#262626" fill-rule="evenodd"/></g></svg>