<svg width="787" height="333" xmlns="http://www.w3.org/2000/svg" xmlns:xlink="http://www.w3.org/1999/xlink" overflow="hidden"><defs><clipPath id="clip0"><rect x="1589" y="900" width="787" height="333"/></clipPath><linearGradient x1="2076.71" y1="905.857" x2="2076.71" y2="1224.26" gradientUnits="userSpaceOnUse" spreadMethod="reflect" id="fill1"><stop offset="0" stop-color="#FFFFFF"/><stop offset="0.015873" stop-color="#FEFEFE"/><stop offset="0.031746" stop-color="#FEFEFE"/><stop offset="0.047619" stop-color="#FEFEFE"/><stop offset="0.0634921" stop-color="#FEFEFE"/><stop offset="0.0793651" stop-color="#FEFEFE"/><stop offset="0.0952381" stop-color="#FEFEFE"/><stop offset="0.111111" stop-color="#FDFDFD"/><stop offset="0.126984" stop-color="#FDFDFD"/><stop offset="0.142857" stop-color="#FDFDFD"/><stop offset="0.15873" stop-color="#FCFCFC"/><stop offset="0.174603" stop-color="#FCFCFC"/><stop offset="0.190476" stop-color="#FCFCFC"/><stop offset="0.206349" stop-color="#FBFBFB"/><stop offset="0.222222" stop-color="#FBFBFB"/><stop offset="0.238095" stop-color="#FAFAFA"/><stop offset="0.253968" stop-color="#FAFAFA"/><stop offset="0.269841" stop-color="#F9F9F9"/><stop offset="0.285714" stop-color="#F8F8F8"/><stop offset="0.301587" stop-color="#F8F8F8"/><stop offset="0.31746" stop-color="#F7F7F7"/><stop offset="0.333333" stop-color="#F6F6F6"/><stop offset="0.349206" stop-color="#F6F6F6"/><stop offset="0.365079" stop-color="#F5F5F5"/><stop offset="0.380952" stop-color="#F4F4F4"/><stop offset="0.396825" stop-color="#F3F3F3"/><stop offset="0.412698" stop-color="#F2F2F2"/><stop offset="0.428571" stop-color="#F1F1F1"/><stop offset="0.444444" stop-color="#F1F1F1"/><stop offset="0.460317" stop-color="#F0F0F0"/><stop offset="0.47619" stop-color="#EFEFEF"/><stop offset="0.492063" stop-color="#EEEEEE"/><stop offset="0.507937" stop-color="#EDEDED"/><stop offset="0.52381" stop-color="#EBEBEB"/><stop offset="0.539683" stop-color="#EAEAEA"/><stop offset="0.555556" stop-color="#E9E9E9"/><stop offset="0.571429" stop-color="#E8E8E8"/><stop offset="0.587302" stop-color="#E7E7E7"/><stop offset="0.603175" stop-color="#E6E6E6"/><stop offset="0.619048" stop-color="#E4E4E4"/><stop offset="0.634921" stop-color="#E3E3E3"/><stop offset="0.650794" stop-color="#E2E2E2"/><stop offset="0.666667" stop-color="#E1E1E1"/><stop offset="0.68254" stop-color="#DFDFDF"/><stop offset="0.698413" stop-color="#DEDEDE"/><stop offset="0.714286" stop-color="#DCDCDC"/><stop offset="0.730159" stop-color="#DBDBDB"/><stop offset="0.746032" stop-color="#DADADA"/><stop offset="0.761905" stop-color="#D8D8D8"/><stop offset="0.777778" stop-color="#D7D7D7"/><stop offset="0.793651" stop-color="#D5D5D5"/><stop offset="0.809524" stop-color="#D3D3D3"/><stop offset="0.825397" stop-color="#D2D2D2"/><stop offset="0.84127" stop-color="#D0D0D0"/><stop offset="0.857143" stop-color="#CFCFCF"/><stop offset="0.873016" stop-color="#CDCDCD"/><stop offset="0.888889" stop-color="#CBCBCB"/><stop offset="0.904762" stop-color="#C9C9C9"/><stop offset="0.920635" stop-color="#C8C8C8"/><stop offset="0.936508" stop-color="#C6C6C6"/><stop offset="0.952381" stop-color="#C4C4C4"/><stop offset="0.968254" stop-color="#C2C2C2"/><stop offset="0.984127" stop-color="#C0C0C0"/><stop offset="1" stop-color="#BFBFBF"/></linearGradient><linearGradient x1="1691.5" y1="965" x2="1691.5" y2="1168" gradientUnits="userSpaceOnUse" spreadMethod="reflect" id="fill2"><stop offset="0" stop-color="#FFFFFF"/><stop offset="0.015873" stop-color="#FEFEFE"/><stop offset="0.031746" stop-color="#FEFEFE"/><stop offset="0.047619" stop-color="#FEFEFE"/><stop offset="0.0634921" stop-color="#FEFEFE"/><stop offset="0.0793651" stop-color="#FEFEFE"/><stop offset="0.0952381" stop-color="#FEFEFE"/><stop offset="0.111111" stop-color="#FDFDFD"/><stop offset="0.126984" stop-color="#FDFDFD"/><stop offset="0.142857" stop-color="#FDFDFD"/><stop offset="0.15873" stop-color="#FCFCFC"/><stop offset="0.174603" stop-color="#FCFCFC"/><stop offset="0.190476" stop-color="#FCFCFC"/><stop offset="0.206349" stop-color="#FBFBFB"/><stop offset="0.222222" stop-color="#FBFBFB"/><stop offset="0.238095" stop-color="#FAFAFA"/><stop offset="0.253968" stop-color="#FAFAFA"/><stop offset="0.269841" stop-color="#F9F9F9"/><stop offset="0.285714" stop-color="#F8F8F8"/><stop offset="0.301587" stop-color="#F8F8F8"/><stop offset="0.31746" stop-color="#F7F7F7"/><stop offset="0.333333" stop-color="#F6F6F6"/><stop offset="0.349206" stop-color="#F6F6F6"/><stop offset="0.365079" stop-color="#F5F5F5"/><stop offset="0.380952" stop-color="#F4F4F4"/><stop offset="0.396825" stop-color="#F3F3F3"/><stop offset="0.412698" stop-color="#F2F2F2"/><stop offset="0.428571" stop-color="#F1F1F1"/><stop offset="0.444444" stop-color="#F1F1F1"/><stop offset="0.460317" stop-color="#F0F0F0"/><stop offset="0.47619" stop-color="#EFEFEF"/><stop offset="0.492063" stop-color="#EEEEEE"/><stop offset="0.507937" stop-color="#EDEDED"/><stop offset="0.52381" stop-color="#EBEBEB"/><stop offset="0.539683" stop-color="#EAEAEA"/><stop offset="0.555556" stop-color="#E9E9E9"/><stop offset="0.571429" stop-color="#E8E8E8"/><stop offset="0.587302" stop-color="#E7E7E7"/><stop offset="0.603175" stop-color="#E6E6E6"/><stop offset="0.619048" stop-color="#E4E4E4"/><stop offset="0.634921" stop-color="#E3E3E3"/><stop offset="0.650794" stop-color="#E2E2E2"/><stop offset="0.666667" stop-color="#E1E1E1"/><stop offset="0.68254" stop-color="#DFDFDF"/><stop offset="0.698413" stop-color="#DEDEDE"/><stop offset="0.714286" stop-color="#DCDCDC"/><stop offset="0.730159" stop-color="#DBDBDB"/><stop offset="0.746032" stop-color="#DADADA"/><stop offset="0.761905" stop-color="#D8D8D8"/><stop offset="0.777778" stop-color="#D7D7D7"/><stop offset="0.793651" stop-color="#D5D5D5"/><stop offset="0.809524" stop-color="#D3D3D3"/><stop offset="0.825397" stop-color="#D2D2D2"/><stop offset="0.84127" stop-color="#D0D0D0"/><stop offset="0.857143" stop-color="#CFCFCF"/><stop offset="0.873016" stop-color="#CDCDCD"/><stop offset="0.888889" stop-color="#CBCBCB"/><stop offset="0.904762" stop-color="#C9C9C9"/><stop offset="0.920635" stop-color="#C8C8C8"/><stop offset="0.936508" stop-color="#C6C6C6"/><stop offset="0.952381" stop-color="#C4C4C4"/><stop offset="0.968254" stop-color="#C2C2C2"/><stop offset="0.984127" stop-color="#C0C0C0"/><stop offset="1" stop-color="#BFBFBF"/></linearGradient><linearGradient x1="1684.55" y1="1067.28" x2="1621.87" y2="1140.74" gradientUnits="userSpaceOnUse" spreadMethod="reflect" id="fill3"><stop offset="0" stop-color="#FFFFFF"/><stop offset="0.015873" stop-color="#FEFEFE"/><stop offset="0.031746" stop-color="#FEFEFE"/><stop offset="0.047619" stop-color="#FEFEFE"/><stop offset="0.0634921" stop-color="#FEFEFE"/><stop offset="0.0793651" stop-color="#FEFEFE"/><stop offset="0.0952381" stop-color="#FEFEFE"/><stop offset="0.111111" stop-color="#FDFDFD"/><stop offset="0.126984" stop-color="#FDFDFD"/><stop offset="0.142857" stop-color="#FDFDFD"/><stop offset="0.15873" stop-color="#FCFCFC"/><stop offset="0.174603" stop-color="#FCFCFC"/><stop offset="0.190476" stop-color="#FCFCFC"/><stop offset="0.206349" stop-color="#FBFBFB"/><stop offset="0.222222" stop-color="#FBFBFB"/><stop offset="0.238095" stop-color="#FAFAFA"/><stop offset="0.253968" stop-color="#FAFAFA"/><stop offset="0.269841" stop-color="#F9F9F9"/><stop offset="0.285714" stop-color="#F8F8F8"/><stop offset="0.301587" stop-color="#F8F8F8"/><stop offset="0.31746" stop-color="#F7F7F7"/><stop offset="0.333333" stop-color="#F6F6F6"/><stop offset="0.349206" stop-color="#F6F6F6"/><stop offset="0.365079" stop-color="#F5F5F5"/><stop offset="0.380952" stop-color="#F4F4F4"/><stop offset="0.396825" stop-color="#F3F3F3"/><stop offset="0.412698" stop-color="#F2F2F2"/><stop offset="0.428571" stop-color="#F1F1F1"/><stop offset="0.444444" stop-color="#F1F1F1"/><stop offset="0.460317" stop-color="#F0F0F0"/><stop offset="0.47619" stop-color="#EFEFEF"/><stop offset="0.492063" stop-color="#EEEEEE"/><stop offset="0.507937" stop-color="#EDEDED"/><stop offset="0.52381" stop-color="#EBEBEB"/><stop offset="0.539683" stop-color="#EAEAEA"/><stop offset="0.555556" stop-color="#E9E9E9"/><stop offset="0.571429" stop-color="#E8E8E8"/><stop offset="0.587302" stop-color="#E7E7E7"/><stop offset="0.603175" stop-color="#E6E6E6"/><stop offset="0.619048" stop-color="#E4E4E4"/><stop offset="0.634921" stop-color="#E3E3E3"/><stop offset="0.650794" stop-color="#E2E2E2"/><stop offset="0.666667" stop-color="#E1E1E1"/><stop offset="0.68254" stop-color="#DFDFDF"/><stop offset="0.698413" stop-color="#DEDEDE"/><stop offset="0.714286" stop-color="#DCDCDC"/><stop offset="0.730159" stop-color="#DBDBDB"/><stop offset="0.746032" stop-color="#DADADA"/><stop offset="0.761905" stop-color="#D8D8D8"/><stop offset="0.777778" stop-color="#D7D7D7"/><stop offset="0.793651" stop-color="#D5D5D5"/><stop offset="0.809524" stop-color="#D3D3D3"/><stop offset="0.825397" stop-color="#D2D2D2"/><stop offset="0.84127" stop-color="#D0D0D0"/><stop offset="0.857143" stop-color="#CFCFCF"/><stop offset="0.873016" stop-color="#CDCDCD"/><stop offset="0.888889" stop-color="#CBCBCB"/><stop offset="0.904762" stop-color="#C9C9C9"/><stop offset="0.920635" stop-color="#C8C8C8"/><stop offset="0.936508" stop-color="#C6C6C6"/><stop offset="0.952381" stop-color="#C4C4C4"/><stop offset="0.968254" stop-color="#C2C2C2"/><stop offset="0.984127" stop-color="#C0C0C0"/><stop offset="1" stop-color="#BFBFBF"/></linearGradient></defs><g clip-path="url(#clip0)" transform="translate(-1589 -900)"><path d="M2243.55 1014.52 2243.55 1061.42 2277.47 1061.42C2282.59 1061.42 2287.72 1059.48 2292.84 1055.59 2297.96 1051.7 2300.53 1045.79 2300.53 1037.84 2300.53 1030.24 2297.96 1024.45 2292.84 1020.48 2287.72 1016.5 2282.42 1014.52 2276.94 1014.52ZM2082.87 1012.13C2070.15 1012.13 2058.75 1017.03 2048.68 1026.84 2038.61 1036.64 2033.58 1049.5 2033.58 1065.4 2033.58 1080.94 2038.65 1093.62 2048.81 1103.42 2058.97 1113.23 2070.23 1118.13 2082.6 1118.13 2095.32 1118.13 2106.72 1113.36 2116.79 1103.82 2126.86 1094.28 2131.89 1081.38 2131.89 1065.13 2131.89 1049.23 2126.81 1036.42 2116.65 1026.71 2106.49 1016.99 2095.23 1012.13 2082.87 1012.13ZM2220.23 967.612 2277.47 967.612C2284.89 967.612 2292.53 969.069 2300.39 971.984 2308.25 974.899 2315.72 979.095 2322.79 984.572 2329.85 990.048 2335.68 997.468 2340.28 1006.83 2344.87 1016.19 2347.17 1026.62 2347.17 1038.1 2347.17 1058.06 2340.54 1074.49 2327.29 1087.39 2331.18 1096.75 2337.18 1110.62 2345.31 1129 2347.96 1135.36 2349.29 1139.95 2349.29 1142.78 2349.29 1149.49 2343.81 1155.14 2332.86 1159.74 2327.2 1162.21 2322.43 1163.45 2318.55 1163.45 2315.54 1163.45 2312.94 1162.61 2310.73 1160.93 2308.52 1159.25 2306.93 1157.53 2305.96 1155.76 2304.99 1153.99 2303.71 1151.26 2302.12 1147.55 2298.23 1138.71 2292.58 1125.46 2285.16 1107.8L2276.94 1108.33 2243.55 1108.33 2243.55 1138.27C2243.55 1142.33 2243.42 1145.38 2243.15 1147.41 2242.89 1149.45 2242.05 1151.79 2240.64 1154.44 2239.22 1157.09 2236.84 1158.94 2233.48 1160 2230.12 1161.06 2225.62 1161.59 2219.97 1161.59 2215.37 1161.59 2211.57 1161.15 2208.57 1160.27 2205.57 1159.38 2203.27 1158.32 2201.68 1157.09 2200.09 1155.85 2198.9 1154.04 2198.1 1151.65 2197.31 1149.27 2196.87 1147.24 2196.78 1145.56 2196.69 1143.88 2196.65 1141.36 2196.65 1138.01L2196.65 990.932C2196.65 986.868 2196.78 983.821 2197.04 981.789 2197.31 979.757 2198.15 977.417 2199.56 974.767 2200.97 972.117 2203.36 970.262 2206.72 969.202 2210.07 968.142 2214.58 967.612 2220.23 967.612ZM1907.9 965.757C1916.2 965.757 1924.64 967.037 1933.21 969.599 1941.78 972.161 1948.27 974.767 1952.69 977.417L1959.05 981.127C1962.23 983.07 1964.65 984.704 1966.33 986.029 1968.01 987.354 1969.6 989.165 1971.1 991.462 1972.6 993.758 1973.36 996.232 1973.36 998.882 1973.36 1003.3 1971.5 1008.07 1967.79 1013.19 1960.9 1022.73 1954.72 1027.5 1949.24 1027.5 1946.06 1027.5 1941.56 1025.56 1935.73 1021.67 1928.31 1015.66 1918.41 1012.66 1906.05 1012.66 1900.57 1012.66 1894.92 1013.68 1889.09 1015.71 1883.26 1017.74 1877.65 1020.7 1872.26 1024.59 1866.87 1028.47 1862.41 1033.95 1858.88 1041.02 1855.34 1048.08 1853.58 1056.03 1853.58 1064.87 1853.58 1073.88 1855.34 1081.91 1858.88 1088.98 1862.41 1096.05 1866.91 1101.57 1872.39 1105.54 1877.87 1109.52 1883.52 1112.48 1889.35 1114.42 1895.18 1116.36 1900.75 1117.34 1906.05 1117.34 1911.52 1117.34 1916.69 1116.63 1921.55 1115.22 1926.41 1113.8 1929.9 1112.39 1932.02 1110.98L1935.2 1108.59 1936.79 1107.53C1942.79 1104 1947.03 1102.23 1949.51 1102.23 1954.98 1102.23 1960.9 1107.18 1967.26 1117.07 1971.15 1123.25 1973.09 1128.29 1973.09 1132.18 1973.09 1135.71 1971.9 1138.71 1969.51 1141.19 1967.13 1143.66 1963.55 1146.31 1958.78 1149.14 1957.19 1150.2 1954.94 1151.61 1952.02 1153.38 1949.11 1155.14 1943.15 1157.44 1934.14 1160.27 1925.13 1163.09 1916.12 1164.51 1907.11 1164.51 1899.33 1164.51 1891.16 1163.4 1882.59 1161.19 1874.02 1158.99 1865.19 1155.28 1856.09 1150.06 1846.99 1144.85 1838.82 1138.49 1831.58 1130.98 1824.34 1123.48 1818.37 1113.85 1813.69 1102.1 1809.01 1090.35 1806.67 1077.5 1806.67 1063.54 1806.67 1049.94 1808.97 1037.53 1813.56 1026.31 1818.15 1015.09 1824.03 1005.82 1831.18 998.484 1838.34 991.152 1846.51 984.969 1855.7 979.934 1864.88 974.899 1873.85 971.277 1882.59 969.069 1891.34 966.861 1899.77 965.757 1907.9 965.757ZM2081.81 965.227C2107.95 965.227 2130.65 974.678 2149.91 993.582 2169.17 1012.48 2178.8 1036.42 2178.8 1065.4 2178.8 1092.43 2169.61 1115.79 2151.24 1135.49 2132.86 1155.19 2110.51 1165.04 2084.19 1165.04 2056.81 1165.04 2033.71 1155.32 2014.89 1135.89 1996.08 1116.45 1986.67 1093.31 1986.67 1066.46 1986.67 1051.79 1989.32 1038.06 1994.62 1025.25 1999.92 1012.44 2006.99 1001.71 2015.82 993.052 2024.65 984.395 2034.81 977.593 2046.3 972.647 2057.78 967.7 2069.62 965.227 2081.81 965.227Z" fill="url(#fill1)" fill-rule="evenodd"/><text fill="#000000" fill-opacity="0" font-family="Arial,Arial_MSFontService,sans-serif" font-size="199.81" x="1806.67" y="1140.06">COR</text><path d="M1590 1066.5C1590 1010.44 1635.44 965 1691.5 965 1747.56 965 1793 1010.44 1793 1066.5 1793 1122.56 1747.56 1168 1691.5 1168 1635.44 1168 1590 1122.56 1590 1066.5Z" fill="url(#fill2)" fill-rule="evenodd"/><path d="M1612 1066.5C1612 1022.59 1647.59 987 1691.5 987 1735.41 987 1771 1022.59 1771 1066.5 1771 1110.41 1735.41 1146 1691.5 1146 1647.59 1146 1612 1110.41 1612 1066.5Z" fill="#6200EE" fill-rule="evenodd"/><path d="M1668.41 1066.18C1673.88 1066.1 1679.52 1066.66 1685.37 1067.98 1697.06 1095.51 1679.57 1130.91 1667.97 1161.9L1666.92 1165 1661.12 1163.51C1629.38 1153.63 1604.32 1128.57 1594.45 1096.81L1594.25 1096.06 1608.34 1087.84C1627.33 1076.77 1646.52 1066.47 1668.41 1066.18Z" fill="url(#fill3)" fill-rule="evenodd"/><path d="M1696.96 965.539 1701.63 965.774C1732.3 968.89 1758.93 985.683 1775.32 1009.96L1779.59 1017.82 1770.86 1025.81C1750.59 1044.37 1729.75 1061.81 1699.78 1061.53 1682.53 1037.09 1692.13 998.799 1696.91 966.05L1696.96 965.539Z" fill="#FFFFFF" fill-rule="evenodd"/></g></svg>